<svg width="24" height="23" viewBox="0 0 24 23" fill="none" xmlns="http://www.w3.org/2000/svg">
<path fill-rule="evenodd" clip-rule="evenodd" d="M6.43982 13.0805C6.1582 12.7988 6 12.4168 6 12.0185C6 11.6201 6.1582 11.2381 6.43982 10.9564L14.9376 2.4586C15.0762 2.31512 15.242 2.20068 15.4252 2.12196C15.6085 2.04323 15.8056 2.00179 16.0051 2.00006C16.2045 1.99832 16.4023 2.03633 16.587 2.11186C16.7716 2.18739 16.9393 2.29893 17.0803 2.43998C17.2214 2.58102 17.3329 2.74874 17.4085 2.93335C17.484 3.11797 17.522 3.31577 17.5203 3.51523C17.5185 3.71469 17.4771 3.91181 17.3984 4.09508C17.3196 4.27835 17.2052 4.44411 17.0617 4.58268L9.62594 12.0185L17.0617 19.4542C17.3354 19.7376 17.4868 20.117 17.4833 20.5109C17.4799 20.9047 17.3219 21.2815 17.0434 21.56C16.7649 21.8385 16.3881 21.9965 15.9943 21.9999C15.6004 22.0034 15.221 21.852 14.9376 21.5783L6.43982 13.0805Z" fill="white"/>
</svg>
