<svg width="24" height="23" viewBox="0 0 24 23" fill="none" xmlns="http://www.w3.org/2000/svg">
<path fill-rule="evenodd" clip-rule="evenodd" d="M6.44006 13.0805C6.15845 12.7988 6.00024 12.4168 6.00024 12.0185C6.00024 11.6201 6.15845 11.2381 6.44006 10.9564L14.9379 2.4586C15.0765 2.31512 15.2422 2.20068 15.4255 2.12196C15.6088 2.04323 15.8059 2.00179 16.0053 2.00006C16.2048 1.99832 16.4026 2.03633 16.5872 2.11186C16.7718 2.18739 16.9395 2.29893 17.0806 2.43998C17.2216 2.58102 17.3332 2.74874 17.4087 2.93335C17.4842 3.11797 17.5222 3.31577 17.5205 3.51523C17.5188 3.71469 17.4773 3.91181 17.3986 4.09508C17.3199 4.27835 17.2054 4.44411 17.062 4.58268L9.62618 12.0185L17.062 19.4542C17.3356 19.7376 17.487 20.117 17.4836 20.5109C17.4802 20.9047 17.3222 21.2815 17.0437 21.56C16.7651 21.8385 16.3884 21.9965 15.9945 21.9999C15.6007 22.0034 15.2212 21.852 14.9379 21.5783L6.44006 13.0805Z" fill="#333D4B"/>
</svg>
