<svg width="18" height="20" viewBox="0 0 18 20" fill="none" xmlns="http://www.w3.org/2000/svg">
<path d="M15.4998 2.85796C15.1291 2.85744 14.763 2.94012 14.4285 3.09991V2.50083C14.4287 1.90501 14.2161 1.32871 13.829 0.875759C13.4419 0.422813 12.9058 0.123017 12.3172 0.0303956C11.7286 -0.0622258 11.1263 0.0584182 10.6188 0.370587C10.1113 0.682756 9.732 1.16592 9.54922 1.73301C9.16853 1.52652 8.74072 1.42248 8.30772 1.43107C7.87471 1.43966 7.45137 1.5606 7.07917 1.78203C6.70697 2.00346 6.39867 2.31779 6.1845 2.69421C5.97033 3.07064 5.85763 3.49625 5.85743 3.92934V9.64335L5.51638 9.09606C5.18511 8.52438 4.641 8.1071 4.00297 7.93541C3.36494 7.76373 2.6849 7.85162 2.11148 8.17986C1.53806 8.5081 1.11791 9.05 0.942855 9.68711C0.767803 10.3242 0.852093 11.0047 1.1773 11.5799C2.6058 14.5949 3.76021 16.7332 5.08068 18.0697C6.41455 19.4232 7.92876 20 10.1429 20C12.226 19.9976 14.223 19.1691 15.6959 17.6962C17.1688 16.2233 17.9973 14.2263 17.9997 12.1432V5.35784C17.9997 4.69483 17.7363 4.05898 17.2675 3.59016C16.7987 3.12134 16.1628 2.85796 15.4998 2.85796ZM16.5712 12.1432C16.5693 13.8475 15.8914 15.4815 14.6863 16.6866C13.4812 17.8917 11.8472 18.5696 10.1429 18.5715C8.32339 18.5715 7.15112 18.1358 6.09581 17.0671C4.91462 15.8698 3.82717 13.8396 2.45581 10.9451C2.44783 10.9273 2.43889 10.9101 2.42902 10.8933C2.28695 10.6471 2.24848 10.3547 2.32206 10.0801C2.39565 9.80563 2.57527 9.5716 2.82142 9.42952C3.06756 9.28745 3.36006 9.24897 3.63457 9.32256C3.90908 9.39615 4.14311 9.57577 4.28519 9.82191C4.28889 9.82903 4.29306 9.83589 4.29769 9.84245L5.96457 12.5209C6.04646 12.653 6.16921 12.7548 6.3142 12.8109C6.45919 12.8669 6.61851 12.8741 6.76797 12.8314C6.91743 12.7887 7.04887 12.6984 7.14235 12.5742C7.23583 12.45 7.28624 12.2987 7.28594 12.1432V3.92934C7.28594 3.64519 7.39881 3.37268 7.59974 3.17176C7.80066 2.97084 8.07317 2.85796 8.35731 2.85796C8.64146 2.85796 8.91397 2.97084 9.11489 3.17176C9.31581 3.37268 9.42869 3.64519 9.42869 3.92934V9.28623C9.42869 9.47566 9.50394 9.65733 9.63789 9.79128C9.77184 9.92523 9.95351 10.0005 10.1429 10.0005C10.3324 10.0005 10.514 9.92523 10.648 9.79128C10.7819 9.65733 10.8572 9.47566 10.8572 9.28623V2.50083C10.8572 2.21669 10.9701 1.94418 11.171 1.74326C11.3719 1.54233 11.6444 1.42946 11.9286 1.42946C12.2127 1.42946 12.4852 1.54233 12.6861 1.74326C12.8871 1.94418 12.9999 2.21669 12.9999 2.50083V9.28623C12.9999 9.47566 13.0752 9.65733 13.2091 9.79128C13.3431 9.92523 13.5248 10.0005 13.7142 10.0005C13.9036 10.0005 14.0853 9.92523 14.2193 9.79128C14.3532 9.65733 14.4285 9.47566 14.4285 9.28623V5.35784C14.4285 5.07369 14.5413 4.80119 14.7423 4.60026C14.9432 4.39934 15.2157 4.28646 15.4998 4.28646C15.784 4.28646 16.0565 4.39934 16.2574 4.60026C16.4583 4.80119 16.5712 5.07369 16.5712 5.35784V12.1432Z" fill="#333D4B"/>
<path d="M16.5712 12.1432C16.5693 13.8475 15.8914 15.4815 14.6863 16.6866C13.4812 17.8917 11.8472 18.5696 10.1429 18.5715C8.32339 18.5715 7.15112 18.1358 6.09581 17.0671C4.91462 15.8698 3.82717 13.8396 2.45581 10.9451C2.44783 10.9273 2.43889 10.9101 2.42902 10.8933C2.28695 10.6471 2.24848 10.3547 2.32206 10.0801C2.39565 9.80563 2.57527 9.5716 2.82142 9.42952C3.06756 9.28745 3.36006 9.24897 3.63457 9.32256C3.90908 9.39615 4.14311 9.57577 4.28519 9.82191C4.28889 9.82903 4.29306 9.83589 4.29769 9.84245L5.96457 12.5209C6.04646 12.653 6.16921 12.7548 6.3142 12.8109C6.45919 12.8669 6.61851 12.8741 6.76797 12.8314C6.91743 12.7887 7.04887 12.6984 7.14235 12.5742C7.23583 12.45 7.28624 12.2987 7.28594 12.1432V3.92934C7.28594 3.64519 7.39881 3.37268 7.59974 3.17176C7.80066 2.97084 8.07317 2.85796 8.35731 2.85796C8.64146 2.85796 8.91397 2.97084 9.11489 3.17176C9.31581 3.37268 9.42869 3.64519 9.42869 3.92934V9.28623C9.42869 9.47566 9.50394 9.65733 9.63789 9.79128C9.77184 9.92523 9.95351 10.0005 10.1429 10.0005C10.3324 10.0005 10.514 9.92523 10.648 9.79128C10.7819 9.65733 10.8572 9.47566 10.8572 9.28623V2.50083C10.8572 2.21669 10.9701 1.94418 11.171 1.74326C11.3719 1.54233 11.6444 1.42946 11.9286 1.42946C12.2127 1.42946 12.4852 1.54233 12.6861 1.74326C12.8871 1.94418 12.9999 2.21669 12.9999 2.50083V9.28623C12.9999 9.47566 13.0752 9.65733 13.2091 9.79128C13.3431 9.92523 13.5248 10.0005 13.7142 10.0005C13.9036 10.0005 14.0853 9.92523 14.2193 9.79128C14.3532 9.65733 14.4285 9.47566 14.4285 9.28623V5.35784C14.4285 5.07369 14.5413 4.80119 14.7423 4.60026C14.9432 4.39934 15.2157 4.28646 15.4998 4.28646C15.784 4.28646 16.0565 4.39934 16.2574 4.60026C16.4583 4.80119 16.5712 5.07369 16.5712 5.35784V12.1432Z" fill="#0082FF"/>
</svg>
