<svg width="12" height="13" viewBox="0 0 12 13" fill="none" xmlns="http://www.w3.org/2000/svg">
<path d="M6.00074 11.6631C7.11014 11.6629 8.18797 11.2938 9.06456 10.6138C9.94115 9.93388 10.5667 8.98169 10.8427 7.90718C11.1188 6.83268 11.0296 5.69688 10.5893 4.67861C10.149 3.66034 9.38254 2.81742 8.41059 2.28256C7.43864 1.7477 6.31641 1.55128 5.22058 1.72422C4.12474 1.89716 3.11755 2.42963 2.35755 3.23782C1.59755 4.046 1.12792 5.08399 1.02259 6.18838C0.917263 7.29276 1.18222 8.40081 1.77575 9.33809L1.00075 11.6631L3.32574 10.8881C4.12551 11.3957 5.0535 11.6645 6.00074 11.6631Z" stroke="#0082FF" stroke-width="1.5" stroke-linecap="round" stroke-linejoin="round"/>
</svg>