<svg width="12" height="13" viewBox="0 0 12 13" fill="none" xmlns="http://www.w3.org/2000/svg">
<path d="M6.00074 11.5C7.11014 11.4998 8.18797 11.1307 9.06456 10.4508C9.94115 9.77079 10.5667 8.8186 10.8427 7.7441C11.1188 6.66959 11.0296 5.5338 10.5893 4.51553C10.149 3.49725 9.38254 2.65433 8.41059 2.11947C7.43864 1.58462 6.31641 1.38819 5.22058 1.56113C4.12474 1.73407 3.11755 2.26655 2.35755 3.07473C1.59755 3.88291 1.12792 4.92091 1.02259 6.02529C0.917263 7.12967 1.18222 8.23773 1.77575 9.175L1.00075 11.5L3.32574 10.725C4.12551 11.2326 5.0535 11.5014 6.00074 11.5Z" stroke="#0082FF" stroke-width="1.5" stroke-linecap="round" stroke-linejoin="round"/>
</svg>