<svg width="20" height="18" viewBox="0 0 20 18" fill="none" xmlns="http://www.w3.org/2000/svg">
<path d="M19.0001 3.28571H6.42864M4.14293 3.28571H0.714355M19.0001 14.7143H6.42864M4.14293 14.7143H0.714355M13.2858 9H0.714355M19.0001 9H15.5715M5.28578 1C5.58889 1 5.87958 1.12041 6.09391 1.33474C6.30823 1.54906 6.42864 1.83975 6.42864 2.14286V4.42857C6.42864 4.73168 6.30823 5.02237 6.09391 5.23669C5.87958 5.45102 5.58889 5.57143 5.28578 5.57143C4.98268 5.57143 4.69199 5.45102 4.47766 5.23669C4.26334 5.02237 4.14293 4.73168 4.14293 4.42857V2.14286C4.14293 1.83975 4.26334 1.54906 4.47766 1.33474C4.69199 1.12041 4.98268 1 5.28578 1ZM5.28578 12.4286C5.58889 12.4286 5.87958 12.549 6.09391 12.7633C6.30823 12.9776 6.42864 13.2683 6.42864 13.5714V15.8571C6.42864 16.1602 6.30823 16.4509 6.09391 16.6653C5.87958 16.8796 5.58889 17 5.28578 17C4.98268 17 4.69199 16.8796 4.47766 16.6653C4.26334 16.4509 4.14293 16.1602 4.14293 15.8571V13.5714C4.14293 13.2683 4.26334 12.9776 4.47766 12.7633C4.69199 12.549 4.98268 12.4286 5.28578 12.4286ZM14.4286 6.71429C14.7317 6.71429 15.0224 6.83469 15.2368 7.04902C15.4511 7.26335 15.5715 7.55404 15.5715 7.85714V10.1429C15.5715 10.446 15.4511 10.7367 15.2368 10.951C15.0224 11.1653 14.7317 11.2857 14.4286 11.2857C14.1255 11.2857 13.8348 11.1653 13.6205 10.951C13.4062 10.7367 13.2858 10.446 13.2858 10.1429V7.85714C13.2858 7.55404 13.4062 7.26335 13.6205 7.04902C13.8348 6.83469 14.1255 6.71429 14.4286 6.71429Z" stroke="#F9FAFB" stroke-width="1.14286" stroke-linecap="round" stroke-linejoin="round"/>
</svg>
