<svg width="24" height="24" viewBox="0 0 24 24" fill="none" xmlns="http://www.w3.org/2000/svg">
<path d="M1 20V17.2C1 16.6333 1.146 16.1127 1.438 15.638C1.73 15.1633 2.11733 14.8007 2.6 14.55C3.63333 14.0333 4.68333 13.646 5.75 13.388C6.81667 13.13 7.9 13.0007 9 13C10.1 12.9993 11.1833 13.1287 12.25 13.388C13.3167 13.6473 14.3667 14.0347 15.4 14.55C15.8833 14.8 16.271 15.1627 16.563 15.638C16.855 16.1133 17.0007 16.634 17 17.2V20H1ZM19 20V17C19 16.2667 18.796 15.5623 18.388 14.887C17.98 14.2117 17.4007 13.6327 16.65 13.15C17.5 13.25 18.3 13.421 19.05 13.663C19.8 13.905 20.5 14.2007 21.15 14.55C21.75 14.8833 22.2083 15.254 22.525 15.662C22.8417 16.07 23 16.516 23 17V20H19ZM9 12C7.9 12 6.95833 11.6083 6.175 10.825C5.39167 10.0417 5 9.1 5 8C5 6.9 5.39167 5.95833 6.175 5.175C6.95833 4.39166 7.9 4 9 4C10.1 4 11.0417 4.39166 11.825 5.175C12.6083 5.95833 13 6.9 13 8C13 9.1 12.6083 10.0417 11.825 10.825C11.0417 11.6083 10.1 12 9 12ZM19 8C19 9.1 18.6083 10.0417 17.825 10.825C17.0417 11.6083 16.1 12 15 12C14.8167 12 14.5833 11.9793 14.3 11.938C14.0167 11.8967 13.7833 11.8507 13.6 11.8C14.05 11.2667 14.396 10.675 14.638 10.025C14.88 9.37499 15.0007 8.7 15 8C14.9993 7.3 14.8787 6.62499 14.638 5.975C14.3973 5.325 14.0513 4.73333 13.6 4.19999C13.8333 4.11666 14.0667 4.06233 14.3 4.037C14.5333 4.01166 14.7667 3.99933 15 4C16.1 4 17.0417 4.39166 17.825 5.175C18.6083 5.95833 19 6.9 19 8ZM3 18H15V17.2C15 17.0167 14.9543 16.85 14.863 16.7C14.7717 16.55 14.6507 16.4333 14.5 16.35C13.6 15.9 12.6917 15.5627 11.775 15.338C10.8583 15.1133 9.93333 15.0007 9 15C8.06667 14.9993 7.14167 15.112 6.225 15.338C5.30833 15.564 4.4 15.9013 3.5 16.35C3.35 16.4333 3.229 16.55 3.137 16.7C3.045 16.85 2.99933 17.0167 3 17.2V18ZM9 10C9.55 10 10.021 9.80433 10.413 9.413C10.805 9.02166 11.0007 8.55066 11 8C10.9993 7.44933 10.8037 6.97866 10.413 6.588C10.0223 6.19733 9.55133 6.00133 9 6C8.44867 5.99866 7.978 6.19466 7.588 6.588C7.198 6.98133 7.002 7.452 7 8C6.998 8.548 7.194 9.019 7.588 9.413C7.982 9.807 8.45267 10.0027 9 10Z" fill="#333D4B"/>
</svg>
