<svg width="18" height="18" viewBox="0 0 18 18" fill="none" xmlns="http://www.w3.org/2000/svg">
<path d="M8.99976 17.0166C8.87701 17.0162 8.75785 16.9752 8.66087 16.8999C5.57199 14.4999 3.44421 12.4333 1.95532 10.3944C0.0553191 7.78883 -0.378014 5.38328 0.66643 3.24439C1.41087 1.71661 3.54976 0.466611 6.04976 1.19439C7.24173 1.53869 8.2817 2.27705 8.99976 3.28883C9.71783 2.27705 10.7578 1.53869 11.9498 1.19439C14.4442 0.477722 16.5887 1.71661 17.3331 3.24439C18.3775 5.38328 17.9442 7.78883 16.0442 10.3944C14.5553 12.4333 12.4275 14.4999 9.33865 16.8999C9.24168 16.9752 9.12251 17.0162 8.99976 17.0166ZM4.62754 2.09994C4.03268 2.07679 3.44275 2.21608 2.92107 2.50286C2.39938 2.78964 1.96565 3.21308 1.66643 3.72772C0.805319 5.49439 1.19421 7.46106 2.85532 9.73328C4.61996 12.0109 6.68718 14.037 8.99976 15.7555C11.312 14.0387 13.3792 12.0145 15.1442 9.73883C16.8109 7.46106 17.1942 5.49439 16.3331 3.73328C15.7775 2.62217 14.1109 1.73883 12.2553 2.26106C11.6603 2.43689 11.1088 2.73534 10.6361 3.13721C10.1634 3.53907 9.78013 4.03545 9.51087 4.59439C9.46902 4.69628 9.39782 4.78344 9.30631 4.84477C9.21481 4.9061 9.10714 4.93885 8.99699 4.93885C8.88683 4.93885 8.77916 4.9061 8.68766 4.84477C8.59616 4.78344 8.52495 4.69628 8.4831 4.59439C8.21586 4.03405 7.83322 3.53652 7.36026 3.1344C6.88729 2.73228 6.33468 2.43467 5.73865 2.26106C5.37754 2.1561 5.00359 2.10187 4.62754 2.09994Z" fill="#333D48"/>
</svg>
