<svg width="19" height="18" viewBox="0 0 19 18" fill="none" xmlns="http://www.w3.org/2000/svg">
<path d="M6.65587 5.86333L8.82087 1.50333C8.88389 1.37715 8.98082 1.27102 9.10078 1.19684C9.22074 1.12267 9.35899 1.08337 9.50004 1.08337C9.64108 1.08337 9.77933 1.12267 9.89929 1.19684C10.0193 1.27102 10.1162 1.37715 10.1792 1.50333L12.3442 5.86333L17.1842 6.56666C17.3238 6.58602 17.4552 6.64424 17.5633 6.73467C17.6714 6.8251 17.7519 6.94411 17.7956 7.0781C17.8393 7.21209 17.8444 7.35567 17.8104 7.49245C17.7765 7.62923 17.7047 7.75371 17.6034 7.85166L14.1017 11.2433L14.9284 16.035C15.0342 16.65 14.3842 17.1183 13.8284 16.8283L9.50004 14.565L5.17087 16.8283C4.61587 17.1192 3.96587 16.65 4.0717 16.0342L4.89837 11.2425L1.3967 7.85083C1.29586 7.7528 1.22453 7.62846 1.19084 7.49192C1.15714 7.35538 1.16243 7.21213 1.20609 7.07845C1.24976 6.94476 1.33005 6.82601 1.43784 6.73569C1.54564 6.64536 1.67661 6.58709 1.81587 6.56749L6.65587 5.86333Z" stroke="#333D4B" stroke-width="1.25" stroke-linecap="round" stroke-linejoin="round"/>
</svg>
