<svg width="21" height="21" viewBox="0 0 21 21" fill="none" xmlns="http://www.w3.org/2000/svg">
<path d="M10.39 19.5816C12.3869 19.5813 14.327 18.9168 15.9049 17.6929C17.4828 16.469 18.6088 14.755 19.1056 12.8209C19.6025 10.8868 19.442 8.84239 18.6495 7.00949C17.8569 5.1766 16.4773 3.65935 14.7277 2.6966C12.9782 1.73385 10.9582 1.38029 8.98572 1.69158C7.01322 2.00287 5.20026 2.96133 3.83226 4.41606C2.46427 5.87079 1.61893 7.73918 1.42934 9.72707C1.23975 11.715 1.71667 13.7095 2.78501 15.3966L1.39001 19.5816L5.57501 18.1866C7.01459 19.1002 8.68498 19.5842 10.39 19.5816Z" fill="#333D4B" stroke="#333D4B" stroke-width="2" stroke-linecap="round" stroke-linejoin="round"/>
</svg>