<svg width="26" height="26" viewBox="0 0 26 26" fill="none" xmlns="http://www.w3.org/2000/svg">
<path d="M0.333008 4.59543C0.333008 3.39827 0.808577 2.25015 1.6551 1.40363C2.50161 0.557112 3.64974 0.081543 4.8469 0.081543H20.8191C22.0163 0.081543 23.1644 0.557112 24.0109 1.40363C24.8574 2.25015 25.333 3.39827 25.333 4.59543V20.5677C25.333 21.7648 24.8574 22.9129 24.0109 23.7595C23.1644 24.606 22.0163 25.0815 20.8191 25.0815H4.8469C3.64974 25.0815 2.50161 24.606 1.6551 23.7595C0.808577 22.9129 0.333008 21.7648 0.333008 20.5677V4.59543ZM6.93023 8.7621C7.29859 8.7621 7.65185 8.61577 7.91232 8.3553C8.17279 8.09483 8.31912 7.74157 8.31912 7.37321C8.31912 7.00485 8.17279 6.65158 7.91232 6.39112C7.65185 6.13065 7.29859 5.98432 6.93023 5.98432C6.56187 5.98432 6.2086 6.13065 5.94814 6.39112C5.68767 6.65158 5.54134 7.00485 5.54134 7.37321C5.54134 7.74157 5.68767 8.09483 5.94814 8.3553C6.2086 8.61577 6.56187 8.7621 6.93023 8.7621ZM11.7913 6.33154C11.5151 6.33154 11.2501 6.44129 11.0548 6.63664C10.8594 6.83199 10.7497 7.09694 10.7497 7.37321C10.7497 7.64948 10.8594 7.91443 11.0548 8.10978C11.2501 8.30513 11.5151 8.41488 11.7913 8.41488H19.4302C19.7065 8.41488 19.9714 8.30513 20.1668 8.10978C20.3622 7.91443 20.4719 7.64948 20.4719 7.37321C20.4719 7.09694 20.3622 6.83199 20.1668 6.63664C19.9714 6.44129 19.7065 6.33154 19.4302 6.33154H11.7913ZM11.7913 11.5399C11.5151 11.5399 11.2501 11.6496 11.0548 11.845C10.8594 12.0403 10.7497 12.3053 10.7497 12.5815C10.7497 12.8578 10.8594 13.1228 11.0548 13.3181C11.2501 13.5135 11.5151 13.6232 11.7913 13.6232H19.4302C19.7065 13.6232 19.9714 13.5135 20.1668 13.3181C20.3622 13.1228 20.4719 12.8578 20.4719 12.5815C20.4719 12.3053 20.3622 12.0403 20.1668 11.845C19.9714 11.6496 19.7065 11.5399 19.4302 11.5399H11.7913ZM10.7497 17.7899C10.7497 18.3649 11.2163 18.8315 11.7913 18.8315H19.4302C19.7065 18.8315 19.9714 18.7218 20.1668 18.5264C20.3622 18.3311 20.4719 18.0661 20.4719 17.7899C20.4719 17.5136 20.3622 17.2487 20.1668 17.0533C19.9714 16.858 19.7065 16.7482 19.4302 16.7482H11.7913C11.5151 16.7482 11.2501 16.858 11.0548 17.0533C10.8594 17.2487 10.7497 17.5136 10.7497 17.7899ZM8.31912 12.5815C8.31912 12.2132 8.17279 11.8599 7.91232 11.5995C7.65185 11.339 7.29859 11.1927 6.93023 11.1927C6.56187 11.1927 6.2086 11.339 5.94814 11.5995C5.68767 11.8599 5.54134 12.2132 5.54134 12.5815C5.54134 12.9499 5.68767 13.3032 5.94814 13.5636C6.2086 13.8241 6.56187 13.9704 6.93023 13.9704C7.29859 13.9704 7.65185 13.8241 7.91232 13.5636C8.17279 13.3032 8.31912 12.9499 8.31912 12.5815ZM6.93023 19.1788C7.29859 19.1788 7.65185 19.0324 7.91232 18.772C8.17279 18.5115 8.31912 18.1582 8.31912 17.7899C8.31912 17.4215 8.17279 17.0683 7.91232 16.8078C7.65185 16.5473 7.29859 16.401 6.93023 16.401C6.56187 16.401 6.2086 16.5473 5.94814 16.8078C5.68767 17.0683 5.54134 17.4215 5.54134 17.7899C5.54134 18.1582 5.68767 18.5115 5.94814 18.772C6.2086 19.0324 6.56187 19.1788 6.93023 19.1788Z" fill="#333D48"/>
</svg>