<svg width="19" height="18" viewBox="0 0 19 18" fill="none" xmlns="http://www.w3.org/2000/svg">
<path d="M6.65489 5.8632L8.81989 1.5032C8.88291 1.37702 8.97984 1.2709 9.0998 1.19672C9.21976 1.12254 9.35802 1.08325 9.49906 1.08325C9.6401 1.08325 9.77835 1.12254 9.89832 1.19672C10.0183 1.2709 10.1152 1.37702 10.1782 1.5032L12.3432 5.8632L17.1832 6.56654C17.3228 6.5859 17.4542 6.64411 17.5623 6.73455C17.6704 6.82498 17.7509 6.94398 17.7946 7.07798C17.8383 7.21197 17.8435 7.35555 17.8095 7.49233C17.7755 7.62911 17.7037 7.75358 17.6024 7.85154L14.1007 11.2432L14.9274 16.0349C15.0332 16.6499 14.3832 17.1182 13.8274 16.8282L9.49906 14.5649L5.16989 16.8282C4.61489 17.119 3.96489 16.6499 4.07073 16.034L4.89739 11.2424L1.39573 7.8507C1.29488 7.75268 1.22356 7.62834 1.18986 7.4918C1.15617 7.35526 1.16145 7.21201 1.20512 7.07832C1.24878 6.94464 1.32907 6.82589 1.43687 6.73556C1.54466 6.64524 1.67563 6.58697 1.81489 6.56737L6.65489 5.8632Z" fill="#FFD233" stroke="#FFD233" stroke-width="1.25" stroke-linecap="round" stroke-linejoin="round"/>
</svg>
