<svg width="27" height="27" viewBox="0 0 27 27" fill="none" xmlns="http://www.w3.org/2000/svg">
<path d="M7.58644 9.41507C8.42324 9.41507 9.10159 8.73671 9.10159 7.89992C9.10159 7.06312 8.42324 6.38477 7.58644 6.38477C6.74965 6.38477 6.07129 7.06312 6.07129 7.89992C6.07129 8.73671 6.74965 9.41507 7.58644 9.41507Z" fill="#333D48"/>
<path d="M12.4121 7.8999H20.4576" stroke="#333D48" stroke-width="1.5" stroke-linecap="round"/>
<path d="M7.58644 15.0967C8.42324 15.0967 9.10159 14.4184 9.10159 13.5816C9.10159 12.7448 8.42324 12.0664 7.58644 12.0664C6.74965 12.0664 6.07129 12.7448 6.07129 13.5816C6.07129 14.4184 6.74965 15.0967 7.58644 15.0967Z" fill="#333D48"/>
<path d="M12.4121 13.5815H20.4576" stroke="#333D48" stroke-width="1.5" stroke-linecap="round"/>
<path d="M7.58644 20.7783C8.42324 20.7783 9.10159 20.1 9.10159 19.2632C9.10159 18.4264 8.42324 17.748 7.58644 17.748C6.74965 17.748 6.07129 18.4264 6.07129 19.2632C6.07129 20.1 6.74965 20.7783 7.58644 20.7783Z" fill="#333D48"/>
<path d="M12.4121 19.2632H20.4576" stroke="#333D48" stroke-width="1.5" stroke-linecap="round"/>
<path d="M20.2724 1.08154H7.39361C4.04643 1.08154 1.33301 3.79497 1.33301 7.14215V20.0209C1.33301 23.3681 4.04643 26.0815 7.39361 26.0815H20.2724C23.6196 26.0815 26.333 23.3681 26.333 20.0209V7.14215C26.333 3.79497 23.6196 1.08154 20.2724 1.08154Z" stroke="#333D48" stroke-width="1.5"/>
</svg>
