<svg width="21" height="20" viewBox="0 0 21 20" fill="none" xmlns="http://www.w3.org/2000/svg">
<path d="M6.42871 10L10.7144 5M10.7144 5L15.0001 10M10.7144 5V15" stroke="#005EB8" stroke-width="1.42857" stroke-linecap="round" stroke-linejoin="round"/>
<path d="M10.7144 19.2858C13.1772 19.2858 15.539 18.3075 17.2804 16.5661C19.0218 14.8247 20.0001 12.4628 20.0001 10.0001C20.0001 7.53735 19.0218 5.17549 17.2804 3.43408C15.539 1.69267 13.1772 0.714355 10.7144 0.714355C8.2517 0.714355 5.88984 1.69267 4.14843 3.43408C2.40702 5.17549 1.42871 7.53735 1.42871 10.0001C1.42871 12.4628 2.40702 14.8247 4.14843 16.5661C5.88984 18.3075 8.2517 19.2858 10.7144 19.2858Z" stroke="#005EB8" stroke-width="1.42857" stroke-linecap="round" stroke-linejoin="round"/>
</svg>
