<?xml version="1.0" standalone="no"?>
<!DOCTYPE svg PUBLIC "-//W3C//DTD SVG 20010904//EN"
 "http://www.w3.org/TR/2001/REC-SVG-20010904/DTD/svg10.dtd">
<svg version="1.0" xmlns="http://www.w3.org/2000/svg"
 width="266.000000pt" height="230.000000pt" viewBox="0 0 266.000000 230.000000"
 preserveAspectRatio="xMidYMid meet">

<g transform="translate(0.000000,230.000000) scale(0.100000,-0.100000)"
fill="#000000" stroke="none">
<path d="M1210 2005 c0 -12 -17 -15 -95 -15 -88 0 -95 -1 -95 -20 0 -16 -7
-20 -35 -20 -28 0 -35 -4 -35 -20 0 -16 -7 -20 -35 -20 -24 0 -35 -5 -35 -15
0 -8 -9 -15 -20 -15 -13 0 -20 -7 -20 -20 0 -18 -7 -20 -55 -20 -48 0 -55 -2
-55 -20 0 -18 -7 -20 -55 -20 -42 0 -55 -3 -55 -15 0 -10 -11 -15 -35 -15 -28
0 -35 -4 -35 -20 0 -13 -7 -20 -20 -20 -13 0 -20 -7 -20 -20 0 -11 -7 -20 -15
-20 -10 0 -15 -11 -15 -35 0 -28 -4 -35 -20 -35 -13 0 -20 -7 -20 -20 0 -13
-7 -20 -20 -20 -16 0 -20 -7 -20 -35 0 -24 -5 -35 -15 -35 -10 0 -15 -11 -15
-35 0 -28 -4 -35 -20 -35 -18 0 -20 -7 -20 -55 0 -48 -2 -55 -20 -55 -19 0
-20 -7 -20 -95 0 -88 1 -95 20 -95 11 0 20 -7 20 -15 0 -8 9 -15 20 -15 16 0
20 -7 20 -35 0 -24 5 -35 15 -35 11 0 15 -11 15 -40 0 -33 3 -40 20 -40 18 0
20 -7 20 -55 0 -48 2 -55 20 -55 16 0 20 -7 20 -35 0 -24 5 -35 15 -35 8 0 15
-9 15 -20 0 -13 7 -20 20 -20 11 0 20 -7 20 -15 0 -8 9 -15 20 -15 13 0 20 -7
20 -20 0 -11 7 -20 15 -20 10 0 15 -11 15 -35 0 -28 4 -35 20 -35 13 0 20 -7
20 -20 0 -16 7 -20 35 -20 28 0 35 -4 35 -20 0 -13 7 -20 20 -20 11 0 20 -7
20 -15 0 -10 11 -15 35 -15 28 0 35 -4 35 -20 0 -13 7 -20 20 -20 13 0 20 -7
20 -20 0 -11 7 -20 15 -20 8 0 15 -7 15 -15 0 -11 11 -15 40 -15 33 0 40 -3
40 -20 0 -11 7 -20 15 -20 8 0 15 -9 15 -20 0 -17 7 -20 40 -20 29 0 40 -4 40
-15 0 -8 7 -15 15 -15 8 0 15 -9 15 -20 0 -20 7 -20 275 -20 268 0 275 0 275
20 0 17 7 20 40 20 29 0 40 4 40 15 0 8 7 15 15 15 8 0 15 9 15 20 0 16 7 20
35 20 28 0 35 4 35 20 0 13 7 20 20 20 11 0 20 7 20 15 0 10 11 15 35 15 28 0
35 4 35 20 0 13 7 20 20 20 13 0 20 7 20 20 0 13 7 20 20 20 11 0 20 7 20 15
0 10 11 15 35 15 34 0 35 1 35 40 0 33 3 40 20 40 11 0 20 7 20 15 0 8 7 15
15 15 11 0 15 11 15 40 0 33 3 40 20 40 16 0 20 7 20 35 0 28 4 35 20 35 16 0
20 7 20 35 0 24 5 35 15 35 11 0 15 11 15 40 0 33 3 40 20 40 18 0 20 7 20 70
0 63 2 70 20 70 18 0 20 7 20 75 0 68 -2 75 -20 75 -18 0 -20 7 -20 55 0 48
-2 55 -20 55 -11 0 -20 7 -20 15 0 8 -7 15 -15 15 -11 0 -15 11 -15 40 0 33
-3 40 -20 40 -11 0 -20 7 -20 15 0 8 -9 15 -20 15 -17 0 -20 7 -20 40 0 29 -4
40 -15 40 -12 0 -15 13 -15 55 0 48 -2 55 -20 55 -11 0 -20 7 -20 15 0 8 -9
15 -20 15 -13 0 -20 7 -20 20 0 11 -7 20 -15 20 -8 0 -15 9 -15 20 0 13 -7 20
-20 20 -11 0 -20 7 -20 15 0 10 -11 15 -35 15 -28 0 -35 4 -35 20 0 13 -7 20
-20 20 -13 0 -20 7 -20 20 0 13 -7 20 -20 20 -11 0 -20 7 -20 15 0 10 -11 15
-35 15 -28 0 -35 4 -35 20 0 11 -7 20 -15 20 -8 0 -15 9 -15 20 0 18 -7 20
-75 20 -60 0 -75 3 -75 15 0 13 -29 15 -200 15 -171 0 -200 -2 -200 -15z m360
-110 c0 -12 15 -15 75 -15 68 0 75 -2 75 -20 0 -13 7 -20 20 -20 13 0 20 -7
20 -20 0 -11 7 -20 15 -20 8 0 15 -7 15 -15 0 -10 11 -15 35 -15 28 0 35 -4
35 -20 0 -13 7 -20 20 -20 13 0 20 -7 20 -20 0 -16 7 -20 35 -20 24 0 35 -5
35 -15 0 -8 9 -15 20 -15 13 0 20 -7 20 -20 0 -13 7 -20 20 -20 16 0 20 -7 20
-35 0 -24 5 -35 15 -35 12 0 15 -13 15 -55 0 -48 2 -55 20 -55 13 0 20 -7 20
-20 0 -13 7 -20 20 -20 16 0 20 -7 20 -35 0 -24 5 -35 15 -35 8 0 15 -9 15
-20 0 -13 7 -20 20 -20 16 0 20 -7 20 -35 0 -28 4 -35 20 -35 18 0 20 -7 20
-55 0 -48 -2 -55 -20 -55 -18 0 -20 -7 -20 -75 0 -68 -2 -75 -20 -75 -16 0
-20 -7 -20 -35 0 -24 -5 -35 -15 -35 -10 0 -15 -11 -15 -35 0 -28 -4 -35 -20
-35 -17 0 -20 -7 -20 -40 0 -33 -3 -40 -20 -40 -16 0 -20 -7 -20 -35 0 -24 -5
-35 -15 -35 -8 0 -15 -9 -15 -20 0 -13 -7 -20 -20 -20 -11 0 -20 -7 -20 -15 0
-8 -9 -15 -20 -15 -13 0 -20 -7 -20 -20 0 -11 -7 -20 -15 -20 -8 0 -15 -9 -15
-20 0 -17 -7 -20 -40 -20 -29 0 -40 -4 -40 -15 0 -8 -7 -15 -15 -15 -8 0 -15
-9 -15 -20 0 -16 -7 -20 -35 -20 -28 0 -35 -4 -35 -20 0 -13 -7 -20 -20 -20
-11 0 -20 -7 -20 -15 0 -10 -11 -15 -35 -15 -28 0 -35 -4 -35 -20 0 -19 -7
-20 -240 -20 -233 0 -240 1 -240 20 0 13 -7 20 -20 20 -11 0 -20 7 -20 15 0
10 -11 15 -35 15 -28 0 -35 4 -35 20 0 13 -7 20 -20 20 -13 0 -20 7 -20 20 0
16 -7 20 -35 20 -24 0 -35 5 -35 15 0 8 -9 15 -20 15 -13 0 -20 7 -20 20 0 11
-7 20 -15 20 -8 0 -15 9 -15 20 0 17 -7 20 -40 20 -29 0 -40 4 -40 15 0 8 -7
15 -15 15 -8 0 -15 9 -15 20 0 13 -7 20 -20 20 -13 0 -20 7 -20 20 0 13 -7 20
-20 20 -11 0 -20 7 -20 15 0 8 -7 15 -15 15 -8 0 -15 9 -15 20 0 13 -7 20 -20
20 -13 0 -20 7 -20 20 0 11 -7 20 -15 20 -10 0 -15 11 -15 35 0 28 -4 35 -20
35 -18 0 -20 7 -20 55 0 48 -2 55 -20 55 -16 0 -20 7 -20 35 0 24 -5 35 -15
35 -10 0 -15 11 -15 35 0 28 -4 35 -20 35 -13 0 -20 7 -20 20 0 13 -7 20 -20
20 -18 0 -20 7 -20 55 0 48 2 55 20 55 18 0 20 7 20 55 0 48 2 55 20 55 16 0
20 7 20 35 0 24 5 35 15 35 11 0 15 11 15 40 0 33 3 40 20 40 11 0 20 7 20 15
0 8 9 15 20 15 17 0 20 7 20 40 l0 40 90 0 c73 0 90 3 90 15 0 10 11 15 35 15
28 0 35 4 35 20 0 13 7 20 20 20 13 0 20 7 20 20 0 11 7 20 15 20 8 0 15 7 15
15 0 12 13 15 55 15 48 0 55 2 55 20 0 13 7 20 20 20 13 0 20 7 20 20 0 19 7
20 90 20 73 0 90 3 90 15 0 13 25 15 165 15 140 0 165 -2 165 -15z"/>
<path d="M840 1420 c0 -13 -7 -20 -20 -20 -18 0 -20 -7 -20 -75 0 -68 2 -75
20 -75 11 0 20 -7 20 -15 0 -8 9 -15 20 -15 13 0 20 -7 20 -20 0 -18 7 -20 70
-20 l70 0 0 110 c0 91 -3 110 -15 110 -8 0 -15 9 -15 20 0 18 -7 20 -75 20
-68 0 -75 -2 -75 -20z"/>
<path d="M1680 1420 c0 -11 -7 -20 -15 -20 -10 0 -15 -11 -15 -35 0 -28 -4
-35 -20 -35 -18 0 -20 -7 -20 -55 0 -48 2 -55 20 -55 13 0 20 -7 20 -20 0 -19
7 -20 90 -20 83 0 90 1 90 20 0 11 7 20 15 20 12 0 15 13 15 55 0 42 -3 55
-15 55 -8 0 -15 7 -15 15 0 8 -9 15 -20 15 -13 0 -20 7 -20 20 0 11 -7 20 -15
20 -8 0 -15 9 -15 20 0 17 -7 20 -40 20 -33 0 -40 -3 -40 -20z"/>
<path d="M1320 980 c0 -19 -7 -20 -110 -20 -91 0 -110 -3 -110 -15 0 -11 -11
-15 -40 -15 -33 0 -40 -3 -40 -20 0 -11 -7 -20 -15 -20 -8 0 -15 -9 -15 -20 0
-13 -7 -20 -20 -20 -11 0 -20 -7 -20 -15 0 -8 -9 -15 -20 -15 -13 0 -20 -7
-20 -20 0 -11 -7 -20 -15 -20 -12 0 -15 -13 -15 -55 l0 -55 55 0 55 0 0 35 c0
24 5 35 15 35 8 0 15 9 15 20 0 13 7 20 20 20 13 0 20 7 20 20 0 16 7 20 35
20 24 0 35 5 35 15 0 12 19 15 110 15 103 0 110 1 110 20 0 18 7 20 55 20 48
0 55 -2 55 -20 0 -18 7 -20 75 -20 60 0 75 -3 75 -15 0 -10 11 -15 35 -15 28
0 35 -4 35 -20 0 -13 7 -20 20 -20 13 0 20 -7 20 -20 0 -13 7 -20 20 -20 11 0
20 -7 20 -15 0 -11 12 -15 50 -15 l50 0 0 35 c0 24 -5 35 -15 35 -8 0 -15 9
-15 20 0 13 -7 20 -20 20 -11 0 -20 7 -20 15 0 8 -7 15 -15 15 -8 0 -15 9 -15
20 0 13 -7 20 -20 20 -13 0 -20 7 -20 20 0 16 -7 20 -35 20 -24 0 -35 5 -35
15 0 12 -15 15 -75 15 -68 0 -75 2 -75 20 0 19 -7 20 -90 20 -83 0 -90 -1 -90
-20z"/>
</g>
</svg>
